# xmcd
#
# Track frame offsets:
#        150
#        14262
#        50385
#        87558
#        123623
#        161396
#
# Disc length: 2647 seconds
#
# Revision: 0
# Processed by: cddbd v1.5.1PL2 Copyright (c) Steve Scherf et al.
# Submitted via: ExactAudioCopy v0.95b3
#
DISCID=450a5506
DTITLE=Ernesto vs Bastian - Dark Side Of The Moon
DYEAR=2005
DGENRE=Trance
TTITLE0=Dark Side Of The Moon (Radio Mix)
TTITLE1=Dark Side Of The Moon (Original Extended)
TTITLE2=Dark Side Of The Moon (Dogzilla Pure Filth Remix)
TTITLE3=Dark Side Of The Moon (Dogzilla Dark Dub)
TTITLE4=Dark Side Of The Moon (Track 5)
TTITLE5=Dark Side Of The Moon (Track 6)
EXTD=
EXTT0=
EXTT1=
EXTT2=
EXTT3=
EXTT4=
EXTT5=
PLAYORDER=
